<svg width="38" height="39" viewBox="0 0 38 39" fill="none" xmlns="http://www.w3.org/2000/svg">
<g id="Logo Node" clip-path="url(#clip0_4_734)">
<g id="Group">
<path id="Vector" d="M18.1016 0.163971C19.077 -0.394368 20.3475 -0.39689 21.3221 0.163971C26.2253 2.93451 31.13 5.70071 36.0323 8.47293C36.9544 8.99232 37.5712 10.0185 37.5618 11.0809V27.7496C37.5686 28.856 36.8909 29.9067 35.9181 30.4143C31.0311 33.1696 26.1466 35.9282 21.2604 38.6835C20.2647 39.2528 18.9687 39.2089 18.0042 38.593C16.5391 37.7436 15.0714 36.8985 13.6061 36.05C13.3067 35.8715 12.9692 35.7294 12.7578 35.4391C12.9447 35.1872 13.2788 35.1558 13.5504 35.0458C14.162 34.8513 14.7237 34.5392 15.2855 34.2363C15.4276 34.139 15.601 34.1763 15.7372 34.2633C16.9901 34.9816 18.2319 35.7209 19.4889 36.4324C19.7571 36.5872 20.0286 36.3816 20.2579 36.2538C25.0536 33.5434 29.8551 30.8432 34.65 28.1319C34.8277 28.0465 34.9259 27.8579 34.9114 27.6633C34.9148 22.1646 34.9123 16.665 34.9131 11.1664C34.9334 10.9456 34.8057 10.7426 34.606 10.6522C29.7359 7.90955 24.8683 5.16268 19.9991 2.41933C19.9147 2.36133 19.8148 2.33021 19.7124 2.33006C19.61 2.32991 19.51 2.36073 19.4255 2.41849C14.5562 5.16268 9.68949 7.91207 4.82024 10.6546C4.62128 10.7451 4.48776 10.9448 4.51144 11.1664C4.51228 16.665 4.51144 22.1646 4.51144 27.6641C4.50299 27.7591 4.52385 27.8543 4.57119 27.9371C4.61854 28.0198 4.6901 28.0861 4.77624 28.1269C6.07563 28.8637 7.37669 29.5954 8.67691 30.3297C9.40941 30.724 10.3088 30.9582 11.1158 30.6562C11.828 30.4007 12.3272 29.674 12.3136 28.9178C12.3203 23.4513 12.3103 17.9839 12.3187 12.5182C12.3009 12.2755 12.5311 12.075 12.767 12.0979C13.3913 12.0937 14.0165 12.0895 14.6408 12.0995C14.9015 12.0937 15.0808 12.355 15.0486 12.5995C15.046 18.1006 15.0553 23.6019 15.0444 29.103C15.046 30.5692 14.4437 32.1645 13.0876 32.8818C11.4169 33.7473 9.35197 33.5637 7.70147 32.7339C6.27262 32.0207 4.90907 31.1791 3.50558 30.415C2.53028 29.9102 1.85593 28.8553 1.86279 27.7497V11.0809C1.85256 9.99649 2.49385 8.95169 3.44464 8.43986C8.33084 5.68235 13.2162 2.92274 18.1016 0.163971Z" fill="#8CC84B"/>
<path id="Vector_2" d="M22.3643 11.7105C24.4953 11.5733 26.7768 11.6292 28.6944 12.679C30.1792 13.4836 31.0023 15.172 31.0285 16.8215C30.9871 17.044 30.7545 17.1668 30.5421 17.1515C29.9238 17.1507 29.3053 17.1599 28.687 17.1473C28.4247 17.1574 28.2723 16.9156 28.2394 16.6837C28.0617 15.8944 27.6313 15.1128 26.8884 14.7321C25.7481 14.1611 24.4258 14.1899 23.1824 14.2018C22.2746 14.25 21.2984 14.3286 20.5294 14.8624C19.939 15.2667 19.7596 16.083 19.9703 16.7404C20.169 17.2125 20.7139 17.3647 21.1597 17.5051C23.728 18.1768 26.4495 18.11 28.9686 18.994C30.0116 19.3543 31.0319 20.0549 31.3889 21.1469C31.8559 22.6105 31.6512 24.3599 30.6099 25.5349C29.7655 26.5018 28.5356 27.028 27.3089 27.3138C25.677 27.6777 23.9835 27.687 22.3263 27.5254C20.768 27.3477 19.1464 26.9383 17.9434 25.8766C16.9147 24.9834 16.4122 23.5917 16.4621 22.2484C16.474 22.0216 16.6999 21.8634 16.9172 21.882C17.5398 21.877 18.1625 21.8753 18.7851 21.8829C19.0338 21.8651 19.2182 22.08 19.231 22.3144C19.3459 23.0664 19.6285 23.8556 20.2842 24.3015C21.5497 25.1179 23.1375 25.062 24.5866 25.0848C25.787 25.0316 27.1346 25.0155 28.1142 24.222C28.6311 23.7695 28.7843 23.0123 28.6446 22.3609C28.4932 21.811 27.918 21.5547 27.4239 21.3872C24.8886 20.5852 22.1367 20.8762 19.626 19.9693C18.6066 19.609 17.621 18.928 17.2294 17.8808C16.6829 16.3987 16.9333 14.5655 18.0838 13.4302C19.2055 12.3009 20.8247 11.8661 22.3643 11.7105Z" fill="#8CC84B"/>
</g>
</g>
<defs>
<clipPath id="clip0_4_734">
<rect width="37.5085" height="37.5085" fill="white" transform="translate(0.0533447 0.663467)"/>
</clipPath>
</defs>
</svg>
