<svg width="39" height="39" viewBox="0 0 39 39" fill="none" xmlns="http://www.w3.org/2000/svg">
<g id="Logo Sass" clip-path="url(#clip0_32_6)">
<g id="Group">
<path id="Vector" fill-rule="evenodd" clip-rule="evenodd" d="M19.4781 0.214287C30.1173 0.214287 38.742 8.83893 38.742 19.4782C38.742 30.1174 30.1173 38.742 19.4781 38.742C8.83888 38.742 0.214233 30.1174 0.214233 19.4782C0.214233 8.83893 8.83888 0.214287 19.4781 0.214287Z" fill="#D06397"/>
<path id="Vector_2" d="M31.5617 8.45965C30.6893 5.03838 25.0163 3.9138 19.6472 5.82092C16.452 6.95621 12.9926 8.7379 10.5059 11.0641C7.54866 13.83 7.07691 16.2375 7.27126 17.2435C7.95705 20.7932 12.8205 23.1135 14.8197 24.8348V24.8451C14.2302 25.1353 9.91512 27.319 8.90526 29.5514C7.83976 31.9068 9.07478 33.5969 9.89243 33.8242C12.4258 34.5292 15.026 33.2612 16.4233 31.1773C17.7718 29.1662 17.6592 26.569 17.0736 25.277C17.8818 25.0638 18.824 24.9684 20.0218 25.1079C23.4011 25.5026 24.0642 27.6126 23.9371 28.4958C23.8104 29.3789 23.1014 29.8644 22.8647 30.0108C22.6276 30.1576 22.5552 30.2081 22.5753 30.3173C22.604 30.4757 22.7136 30.4697 22.9157 30.4354C23.1939 30.3883 24.6901 29.7171 24.7539 28.087C24.8352 26.0176 22.8519 23.7025 19.3403 23.7629C17.8942 23.7877 16.9845 23.9255 16.3278 24.17C16.2795 24.1147 16.2298 24.0595 16.1789 24.0052C14.008 21.6888 9.99474 20.0505 10.1647 16.9366C10.2268 15.8047 10.6202 12.8236 17.8762 9.20794C23.8202 6.24601 28.5788 7.06109 29.4012 8.86761C30.5758 11.4481 26.8579 16.2448 20.6849 16.9366C18.333 17.2003 17.0945 16.2889 16.7868 15.9494C16.4623 15.592 16.4143 15.5757 16.2932 15.6429C16.0958 15.7521 16.2208 16.0676 16.2932 16.2559C16.4777 16.7354 17.2337 17.586 18.5231 18.0094C19.6575 18.3818 22.4186 18.586 25.7581 17.2945C29.4988 15.848 32.4196 11.8235 31.5617 8.45965ZM15.6498 25.8952C15.9302 26.932 15.8993 27.8986 15.6099 28.774C15.5778 28.8712 15.5423 28.9675 15.5038 29.0626C15.4653 29.1576 15.4237 29.2514 15.3792 29.3442C15.1557 29.8074 14.8565 30.2411 14.4896 30.6413C13.3702 31.8622 11.8064 32.3242 11.136 31.935C10.4117 31.5151 10.7747 29.7937 12.0722 28.4217C13.4682 26.9461 15.4768 25.997 15.4768 25.997L15.4738 25.9911C15.5316 25.9598 15.5903 25.9277 15.6498 25.8952Z" fill="white"/>
</g>
</g>
<defs>
<clipPath id="clip0_32_6">
<rect width="39" height="39" fill="white"/>
</clipPath>
</defs>
</svg>
