<svg width="102" height="17" viewBox="0 0 102 17" fill="none" xmlns="http://www.w3.org/2000/svg">
<path d="M9.87458 9.30896V6.36521C9.826 5.36699 9.00013 4.57236 7.99035 4.57236H6.71684C5.93261 4.57236 5.17383 4.29822 4.5712 3.79738C4.5712 4.9957 5.10443 6.13272 6.02746 6.89844L6.1038 6.96205L9.27426 9.59466L9.87458 10.0932L12.4343 12.218C13.0716 12.7466 13.576 13.4059 13.9195 14.1381C14.263 14.8691 14.4469 15.6776 14.4469 16.5058H10.4448L6.10496 12.9016L4.57236 11.6281V16.5058H0V0H10.6102C12.7293 0 14.4469 1.71767 14.4469 3.83671V13.8385C14.0652 13.0439 13.5158 12.3314 12.8183 11.7519L11.7484 10.8635L9.87458 9.30896Z" fill="#00A4FF"/>
<path d="M19.9712 13.3909V2.77948H25.787C26.5701 2.77948 27.2224 2.91828 27.7441 3.19704C28.2646 3.4758 28.6544 3.86444 28.9123 4.36529C29.1703 4.86613 29.2987 5.43984 29.2987 6.0899C29.2987 6.78044 29.1437 7.39232 28.8348 7.92324C28.526 8.45415 28.0772 8.85899 27.4896 9.13775L29.6549 13.3909H27.1033L25.2318 9.52408H22.2776V13.3909H19.9712ZM22.2753 7.69884H25.477C25.9408 7.69884 26.3017 7.55772 26.5596 7.27318C26.8176 6.98979 26.946 6.60578 26.946 6.12113C26.946 5.81229 26.8893 5.54626 26.7759 5.32418C26.6626 5.10209 26.4972 4.93553 26.2809 4.82102C26.0646 4.70766 25.7962 4.65099 25.477 4.65099H22.2753V7.69884Z" fill="white"/>
<path d="M35.0058 13.5759C33.8815 13.5759 32.9122 13.3747 32.0979 12.9722C31.2836 12.5696 30.6589 11.9612 30.2263 11.1469C29.7937 10.3326 29.5763 9.31126 29.5763 8.08402C29.5763 6.83596 29.7926 5.80767 30.2263 4.998C30.6589 4.18832 31.2836 3.58569 32.0979 3.1878C32.9122 2.79105 33.8815 2.5921 35.0058 2.5921C36.1509 2.5921 37.1271 2.79105 37.9368 3.1878C38.7465 3.58454 39.3676 4.18832 39.8002 4.998C40.2328 5.80767 40.4502 6.83596 40.4502 8.08402C40.4502 9.31126 40.2339 10.3326 39.8002 11.1469C39.3676 11.9612 38.7453 12.5696 37.9368 12.9722C37.1271 13.3758 36.1497 13.5759 35.0058 13.5759ZM35.0058 11.6894C35.5112 11.6894 35.9542 11.6177 36.3359 11.4731C36.7176 11.3285 37.0369 11.1122 37.2948 10.823C37.5528 10.535 37.7482 10.1811 37.8824 9.76352C38.0166 9.34596 38.0837 8.86941 38.0837 8.33271V7.85384C38.0837 7.30789 38.0166 6.82324 37.8824 6.39989C37.7482 5.97771 37.5528 5.62376 37.2948 5.34037C37.0369 5.05699 36.7176 4.843 36.3359 4.69842C35.9542 4.55383 35.5112 4.48212 35.0058 4.48212C34.5107 4.48212 34.0723 4.55383 33.6906 4.69842C33.3089 4.843 32.9897 5.05699 32.7317 5.34037C32.4738 5.62376 32.2806 5.97771 32.1522 6.39989C32.0227 6.82324 31.9591 7.30789 31.9591 7.85384V8.33271C31.9591 8.86941 32.0238 9.34596 32.1522 9.76352C32.2806 10.1811 32.4749 10.535 32.7317 10.823C32.9897 11.1122 33.3089 11.3285 33.6906 11.4731C34.0723 11.6177 34.5107 11.6894 35.0058 11.6894Z" fill="white"/>
<path d="M41.1777 13.3909V2.77948H43.2968L47.5661 8.50273C47.6274 8.57444 47.7049 8.67508 47.7986 8.80463C47.8911 8.93417 47.979 9.06025 48.0611 9.18402C48.1433 9.30778 48.1999 9.4061 48.2312 9.47781H48.3087C48.3087 9.30315 48.3087 9.12965 48.3087 8.95962C48.3087 8.78959 48.3087 8.63691 48.3087 8.50273V2.77948H50.489V13.3909H48.37L44.0081 7.52881C43.9052 7.38422 43.7965 7.2246 43.6831 7.04994C43.5697 6.87413 43.4876 6.74111 43.4356 6.64741H43.3581C43.3581 6.80241 43.3581 6.95394 43.3581 7.1043C43.3581 7.25352 43.3581 7.39579 43.3581 7.52996V13.392H41.1777V13.3909Z" fill="white"/>
<path d="M50.6129 13.3909L54.696 2.77948H57.5414L61.6257 13.3909H59.1353L58.3777 11.3031H53.7533L52.9957 13.3909H50.6129ZM54.4172 9.44658H57.7115L56.7676 6.83248C56.726 6.71913 56.6774 6.58264 56.6207 6.42302C56.564 6.2634 56.505 6.08527 56.4426 5.88979C56.3801 5.69431 56.3211 5.50115 56.2645 5.31029C56.2078 5.11944 56.1534 4.9471 56.1025 4.7921H56.01C55.9579 4.98758 55.8908 5.21776 55.8087 5.48032C55.7266 5.74289 55.6433 5.99621 55.5612 6.23795C55.4791 6.48086 55.412 6.67865 55.3599 6.83364L54.4172 9.44658Z" fill="white"/>
<path d="M61.7494 13.3909V2.77948H64.0547V11.4257H69.4066V13.3897H61.7494V13.3909Z" fill="white"/>
<path d="M69.7466 13.3909V2.77948H74.0772C75.1807 2.77948 76.1187 2.97033 76.8926 3.35203C77.6664 3.73374 78.2621 4.31324 78.6796 5.09168C79.0972 5.87013 79.3065 6.86834 79.3065 8.08517C79.3065 9.29159 79.0972 10.2875 78.6796 11.0706C78.2621 11.8548 77.6664 12.4366 76.8926 12.8183C76.1187 13.2 75.1807 13.3909 74.0772 13.3909H69.7466ZM72.0507 11.4881H74.061C74.5248 11.4881 74.9378 11.421 75.2986 11.2869C75.6595 11.1527 75.958 10.9549 76.1962 10.6912C76.4334 10.4286 76.6138 10.0978 76.7376 9.70105C76.8613 9.30431 76.9238 8.8428 76.9238 8.31651V7.85268C76.9238 7.32639 76.8613 6.86487 76.7376 6.46813C76.6138 6.07139 76.4334 5.74058 76.1962 5.47801C75.9591 5.21545 75.6595 5.01418 75.2986 4.87423C74.9378 4.73542 74.5248 4.66602 74.061 4.66602H72.0507V11.4881Z" fill="white"/>
<path d="M79.8652 13.3909V12.5558H80.5592V13.3909H79.8652Z" fill="white"/>
<path d="M81.8282 13.3909V5.95111H84.366C85.1757 5.95111 85.8627 6.07835 86.4272 6.3305C86.9917 6.58381 87.4208 6.98287 87.7181 7.52882C88.0142 8.07478 88.1622 8.78845 88.1622 9.67099C88.1622 10.5385 88.0142 11.2475 87.7181 11.797C87.4219 12.3464 86.9917 12.7501 86.4272 13.0057C85.8627 13.2625 85.1757 13.3909 84.366 13.3909H81.8282ZM82.4147 12.8704H84.3232C84.8079 12.8704 85.2462 12.8183 85.6407 12.7131C86.0351 12.6078 86.374 12.4366 86.6597 12.1983C86.9454 11.9601 87.164 11.6431 87.3155 11.2499C87.4671 10.8554 87.5434 10.3731 87.5434 9.8017V9.58424C87.5434 8.99202 87.4671 8.49581 87.3155 8.09791C87.164 7.70001 86.9466 7.38192 86.6643 7.14365C86.3821 6.90537 86.0443 6.73303 85.6499 6.62893C85.2555 6.52367 84.8125 6.47162 84.3209 6.47162H82.4124V12.8704H82.4147Z" fill="white"/>
<path d="M89.062 13.3909V5.95111H94.702V6.47162H89.6484V9.31358H94.2254V9.83409H89.6484V12.8704H94.7679V13.3909H89.062Z" fill="white"/>
<path d="M97.566 13.3909L94.702 5.95111H95.3313L97.4133 11.3956C97.4711 11.5332 97.5313 11.6882 97.5926 11.8617C97.6539 12.0352 97.7152 12.2076 97.7765 12.3765C97.8378 12.5465 97.8898 12.6969 97.9338 12.8264H98.0101C98.061 12.6969 98.1154 12.5465 98.1732 12.3765C98.2311 12.2064 98.2924 12.0352 98.3571 11.8617C98.4219 11.6882 98.4797 11.5332 98.5306 11.3956L100.58 5.95111H101.21L98.3467 13.3909H97.566Z" fill="white"/>
</svg>
