<svg width="104" height="103" viewBox="0 0 104 103" fill="none" xmlns="http://www.w3.org/2000/svg">
<path d="M79.6787 17.319C76.1822 17.319 73.3479 20.1533 73.3479 23.6497C73.3479 27.1464 76.1822 29.9805 79.6787 29.9805C83.1753 29.9805 86.0096 27.1464 86.0096 23.6497C86.0096 20.1533 83.1753 17.319 79.6787 17.319ZM74.5565 0.242432H30.3907C14.1295 0.242432 0.947021 13.5068 0.947021 29.8686V72.457C0.947021 88.8196 14.1295 102.083 30.3907 102.083H74.5565C90.8179 102.083 104 88.8196 104 72.457V29.8686C104 13.5068 90.8179 0.242432 74.5565 0.242432ZM94.371 68.6188C94.371 84.4968 87.2055 93.0603 70.382 93.0603H34.3983C17.751 93.0603 10.4092 84.8318 10.4092 68.6188V33.4839C10.4092 15.8219 17.6386 9.04267 34.3983 9.04267H70.3818C86.0916 9.04267 94.3709 16.4906 94.3709 33.4839L94.371 68.6188ZM52.1904 24.7424C37.6555 24.7424 25.873 36.5247 25.873 51.0595C25.873 65.5942 37.6555 77.3769 52.1904 77.3769C66.7246 77.3769 78.5073 65.5944 78.5073 51.0595C78.5073 36.5247 66.7244 24.7424 52.1904 24.7424ZM52.1904 68.1811C42.7339 68.1811 35.0681 60.5156 35.0681 51.0595C35.0681 41.6028 42.7339 33.9373 52.1904 33.9373C61.6458 33.9373 69.3113 41.6028 69.3113 51.0595C69.3113 60.5156 61.6458 68.1811 52.1904 68.1811Z" fill="#00A4FF"/>
</svg>
