<svg width="96" height="96" viewBox="0 0 96 96" fill="none" xmlns="http://www.w3.org/2000/svg">
<path d="M84.5714 0H11.4286C5.12 0 0 5.12 0 11.4286V84.5714C0 90.88 5.12 96 11.4286 96H84.5714C90.88 96 96 90.88 96 84.5714V11.4286C96 5.12 90.88 0 84.5714 0ZM29.7143 36.5714V80H16V36.5714H29.7143ZM16 23.9314C16 20.7314 18.7429 18.2857 22.8571 18.2857C26.9714 18.2857 29.5543 20.7314 29.7143 23.9314C29.7143 27.1314 27.1543 29.7143 22.8571 29.7143C18.7429 29.7143 16 27.1314 16 23.9314ZM80 80H66.2857C66.2857 80 66.2857 58.8343 66.2857 57.1429C66.2857 52.5714 64 48 58.2857 47.9086H58.1029C52.5714 47.9086 50.2857 52.6171 50.2857 57.1429C50.2857 59.2229 50.2857 80 50.2857 80H36.5714V36.5714H50.2857V42.4229C50.2857 42.4229 54.6971 36.5714 63.5657 36.5714C72.64 36.5714 80 42.8114 80 55.4514V80Z" fill="#00A4FF"/>
</svg>
