<svg width="38" height="39" viewBox="0 0 38 39" fill="none" xmlns="http://www.w3.org/2000/svg">
<g id="Logo MySql" clip-path="url(#clip0_4_728)">
<path id="Vector" d="M0.00284425 19.9911C-0.177922 9.63494 8.07083 1.09311 18.427 0.91234C28.7831 0.731573 37.3249 8.98033 37.5057 19.3364C37.6864 29.6926 29.4377 38.2344 19.0816 38.4152C8.72545 38.5959 0.183611 30.3472 0.00284425 19.9911Z" fill="white"/>
<path id="Vector_2" d="M11.9988 25.4046H11.0307C10.9965 23.7828 10.9022 22.258 10.7481 20.8292H10.7395L9.26567 25.4046H8.52866L7.06363 20.8292H7.05521C6.94653 22.201 6.87807 23.7261 6.84963 25.4046H5.96729C6.02415 23.3635 6.16706 21.45 6.39546 19.6638H7.59524L8.99163 23.8821H9.00023L10.4052 19.6638H11.5532C11.8046 21.7559 11.9531 23.6697 11.9988 25.4046ZM16.1969 21.169C15.8028 23.292 15.2827 24.8346 14.6374 25.7975C14.1346 26.5387 13.5837 26.9097 12.9838 26.9097C12.8239 26.9097 12.6265 26.8618 12.3927 26.7668V26.2548C12.507 26.2712 12.6411 26.2805 12.7952 26.2805C13.0755 26.2805 13.3007 26.204 13.4724 26.0506C13.6778 25.8638 13.7805 25.6538 13.7805 25.4215C13.7805 25.2622 13.7004 24.9366 13.5407 24.4434L12.4784 21.1688H13.4294L14.1918 23.6179C14.3632 24.174 14.4346 24.5622 14.406 24.7834C14.823 23.6781 15.1142 22.4728 15.2801 21.1687H16.1969V21.169Z" fill="#5D87A1"/>
<path id="Vector_3" d="M28.5576 25.2992H25.8845V19.7464H26.7837V24.6157H28.5576V25.2992ZM25.1848 25.4334L24.1512 24.9296C24.2429 24.8552 24.3305 24.7748 24.4094 24.6816C24.8488 24.1719 25.0679 23.4181 25.0679 22.4198C25.0679 20.5827 24.338 19.6638 22.8776 19.6638C22.1615 19.6638 21.6029 19.8969 21.2034 20.3633C20.7645 20.8733 20.5453 21.6244 20.5453 22.6173C20.5453 23.5934 20.7395 24.3095 21.1281 24.7637C21.4836 25.1751 22.0195 25.3811 22.7361 25.3811C23.0035 25.3811 23.2488 25.3488 23.4722 25.2836L24.8179 26.0573L25.1848 25.4334ZM21.8366 24.1881C21.6089 23.8264 21.4951 23.2456 21.4951 22.4448C21.4951 21.0466 21.9251 20.3467 22.7862 20.3467C23.2362 20.3467 23.5661 20.5141 23.777 20.8482C24.0043 21.2104 24.1187 21.786 24.1187 22.5757C24.1187 23.9853 23.6883 24.6902 22.8278 24.6902C22.3776 24.6904 22.0477 24.5235 21.8366 24.1881ZM20.1535 23.7601C20.1535 24.231 19.9785 24.6173 19.629 24.9199C19.2792 25.2213 18.81 25.3723 18.2221 25.3723C17.6723 25.3723 17.1391 25.1988 16.623 24.8536L16.8647 24.3768C17.3088 24.5965 17.7108 24.7056 18.0718 24.7056C18.4105 24.7056 18.6753 24.6315 18.8673 24.4844C19.0592 24.3368 19.1735 24.1297 19.1735 23.8678C19.1735 23.5379 18.9406 23.256 18.5133 23.0198C18.1192 22.8061 17.3311 22.3593 17.3311 22.3593C16.904 22.0518 16.6901 21.7217 16.6901 21.1779C16.6901 20.7278 16.8496 20.3645 17.1687 20.0881C17.4882 19.8107 17.9005 19.6724 18.4058 19.6724C18.9277 19.6724 19.4021 19.8105 19.8294 20.0838L19.6127 20.5608C19.2472 20.4074 18.8864 20.3308 18.5306 20.3308C18.2423 20.3308 18.0198 20.3992 17.865 20.5366C17.709 20.6734 17.6128 20.8485 17.6128 21.0633C17.6128 21.3916 17.8507 21.6772 18.2896 21.918C18.6889 22.1321 19.4967 22.5866 19.4967 22.5866C19.9347 22.8936 20.1535 23.2206 20.1535 23.7601Z" fill="#F8981D"/>
<path id="Vector_4" d="M29.8811 17.8689C29.3243 17.8551 28.8931 17.9098 28.5313 18.0592C28.4268 18.1 28.2607 18.1 28.2462 18.2289C28.3026 18.2834 28.3091 18.3714 28.3581 18.4467C28.4415 18.5825 28.587 18.7653 28.7198 18.8605C28.8656 18.9696 29.012 19.0776 29.1654 19.1727C29.436 19.3362 29.7428 19.4313 30.0065 19.5942C30.1601 19.6889 30.3128 19.8114 30.4666 19.9134C30.5423 19.9678 30.5907 20.056 30.6888 20.09V20.0693C30.6397 20.0082 30.6257 19.9198 30.5775 19.8518L30.3685 19.6551C30.1666 19.3903 29.9158 19.1593 29.6452 18.9694C29.4224 18.8196 28.9352 18.616 28.8449 18.3654L28.8308 18.3516C28.9838 18.3376 29.1654 18.2834 29.3109 18.2418C29.5476 18.1809 29.7634 18.1947 30.0063 18.1338C30.118 18.1065 30.2288 18.0723 30.3409 18.0387V17.9774C30.215 17.8551 30.1253 17.6925 29.9929 17.5769C29.6386 17.2781 29.2483 16.986 28.8449 16.7414C28.6289 16.6052 28.351 16.5176 28.121 16.4018C28.0381 16.3609 27.8985 16.3407 27.8497 16.2727C27.7249 16.1232 27.6547 15.9265 27.5642 15.7496C27.363 15.3763 27.1677 14.9621 26.9941 14.5674C26.8686 14.3027 26.7922 14.0383 26.6391 13.7934C25.9221 12.6388 25.1435 11.9396 23.9467 11.2532C23.6895 11.1103 23.3835 11.0494 23.0567 10.9745L22.5347 10.9475C22.4233 10.8999 22.3117 10.7706 22.2145 10.7095C21.8175 10.4652 20.7952 9.93553 20.5032 10.6348C20.3151 11.0768 20.7814 11.5114 20.9416 11.7355C21.0599 11.8912 21.2131 12.0683 21.2958 12.245C21.3448 12.3605 21.3586 12.483 21.4076 12.605C21.5189 12.9039 21.623 13.2365 21.7694 13.5154C21.8458 13.6576 21.929 13.807 22.0266 13.9357C22.0825 14.011 22.1797 14.0443 22.2009 14.167C22.1039 14.3023 22.0963 14.5065 22.0406 14.6763C21.7903 15.4438 21.8881 16.3945 22.2428 16.9585C22.3538 17.1283 22.6187 17.5021 22.9729 17.3589C23.2865 17.2367 23.217 16.8496 23.3072 16.5101C23.3278 16.4281 23.3143 16.3743 23.356 16.3205V16.3338C23.453 16.5238 23.551 16.7069 23.6409 16.8974C23.8568 17.23 24.2326 17.5765 24.5456 17.8069C24.7123 17.9298 24.8444 18.14 25.0531 18.2151V18.1947H25.0394C24.9971 18.1338 24.9353 18.1065 24.8798 18.0592C24.7542 17.9369 24.6153 17.7874 24.5179 17.6518C24.2263 17.2712 23.9681 16.85 23.7391 16.4152C23.6269 16.2043 23.5303 15.9738 23.44 15.7632C23.3979 15.6819 23.3979 15.5594 23.328 15.5185C23.2234 15.6678 23.0708 15.797 22.9945 15.98C22.8621 16.2725 22.8483 16.6323 22.7991 17.0065L22.7717 17.0196C22.5501 16.9652 22.473 16.7414 22.3888 16.5514C22.1804 16.0689 22.1454 15.2943 22.3263 14.7376C22.3747 14.5952 22.5842 14.1468 22.5006 14.0112C22.4587 13.8812 22.3194 13.8072 22.243 13.7048C22.1533 13.5761 22.0549 13.4132 21.9924 13.2703C21.8255 12.8901 21.7415 12.4688 21.5618 12.0888C21.4778 11.9117 21.332 11.7285 21.2139 11.5654C21.0813 11.3821 20.9355 11.253 20.8306 11.0357C20.796 10.961 20.7474 10.8388 20.803 10.7575C20.8166 10.703 20.8449 10.6826 20.9004 10.669C20.9906 10.5946 21.2482 10.6892 21.3385 10.7301C21.5964 10.8319 21.8121 10.927 22.0274 11.0695C22.1248 11.1377 22.2292 11.2668 22.3542 11.3008H22.5006C22.7228 11.3481 22.9733 11.3139 23.1824 11.3754C23.551 11.491 23.8849 11.6606 24.1843 11.8437C25.0956 12.4079 25.8471 13.2096 26.3544 14.167C26.4376 14.323 26.473 14.4659 26.549 14.6287C26.6956 14.9618 26.8768 15.3014 27.0222 15.6274C27.1684 15.9465 27.3077 16.2723 27.5165 16.5374C27.6206 16.68 28.0389 16.7547 28.2264 16.8294C28.3652 16.8903 28.5812 16.9445 28.7063 17.0192C28.9431 17.1616 29.1788 17.3251 29.4014 17.4816C29.5122 17.5631 29.8605 17.7329 29.8811 17.8689ZM22.7844 11.9663C22.6884 11.9653 22.5926 11.9768 22.4997 12.0005V12.0141H22.5131C22.5691 12.1226 22.6665 12.1979 22.736 12.2926C22.792 12.4016 22.8407 12.5096 22.8956 12.6183L22.909 12.6048C23.0072 12.537 23.0559 12.4283 23.0559 12.2652C23.0137 12.2172 23.0071 12.1703 22.972 12.1226C22.931 12.0546 22.8407 12.0208 22.7844 11.9663Z" fill="#5D87A1"/>
<path id="Vector_5" d="M30.5264 25.631H30.6888V24.7788H30.4452L30.2465 25.3604L30.0306 24.7788H29.7961V25.631H29.9494V24.9826H29.958L30.1842 25.631H30.3011L30.5264 24.9826V25.631ZM29.2182 25.631H29.3901V24.9232H29.615V24.7785H28.9839V24.9232H29.2178L29.2182 25.631Z" fill="#F8981D"/>
</g>
<defs>
<clipPath id="clip0_4_728">
<rect width="37.5085" height="37.5085" fill="white" transform="translate(0 0.909485)"/>
</clipPath>
</defs>
</svg>
