<svg width="42" height="41" viewBox="0 0 42 41" fill="none" xmlns="http://www.w3.org/2000/svg">
<g id="Logo HTML" clip-path="url(#clip0_4_716)">
<path id="Vector" d="M35.2956 8.28229L32.6796 37.5885L20.9204 40.8485L9.19363 37.593L6.58032 8.28229H35.2956Z" fill="#E44D26"/>
<path id="Vector_2" d="M20.938 38.3566L30.44 35.7223L32.6754 10.6788H20.938V38.3566Z" fill="#F16529"/>
<path id="Vector_3" d="M15.8525 17.8686H20.938V14.2738H11.9238L12.0098 15.2382L12.8934 25.1446H20.938V21.5498H16.1811L15.8525 17.8686ZM16.6627 26.9421H13.054L13.5576 32.5865L20.9214 34.6306L20.938 34.6261V30.886L20.9222 30.8901L16.9187 29.8091L16.6627 26.9421Z" fill="#EBEBEB"/>
<path id="Vector_4" d="M9.25195 0.316849H11.0788V2.12175H12.75V0.316849H14.577V5.78255H12.7501V3.95232H11.0789V5.78255H9.25207L9.25195 0.316849ZM16.9792 2.12941H15.3712V0.316849H20.4155V2.12941H18.8064V5.78255H16.9796V2.12941H16.9792ZM21.216 0.316849H23.1208L24.2926 2.23735L25.4632 0.316849H27.3689V5.78255H25.5494V3.07345L24.2926 5.0168H24.2611L23.0034 3.07345V5.78255H21.216V0.316849ZM28.278 0.316849H30.1054V3.97596H32.6745V5.78255H28.2779V0.316849H28.278Z" fill="white"/>
<path id="Vector_5" d="M20.9256 25.1446H25.3523L24.9349 29.8069L20.9255 30.889V34.6289L28.2952 32.5865L28.3492 31.9791L29.1941 22.5151L29.2818 21.5498H20.9256V25.1446ZM20.9256 17.8598V17.8686H29.6089L29.6809 17.0606L29.8448 15.2382L29.9307 14.2738H20.9256V17.8598Z" fill="white"/>
</g>
<defs>
<clipPath id="clip0_4_716">
<rect width="40.6343" height="40.6343" fill="white" transform="translate(0.62085 0.316849)"/>
</clipPath>
</defs>
</svg>
