<svg width="42" height="42" viewBox="0 0 42 42" fill="none" xmlns="http://www.w3.org/2000/svg">
<path id="Logo Git" d="M41.1692 19.2862L22.9729 1.09068C21.9257 0.0427313 20.2261 0.0427313 19.1775 1.09068L15.3989 4.86928L20.1922 9.66261C21.3061 9.28622 22.5834 9.53872 23.4713 10.4266C24.3634 11.3202 24.6141 12.6085 24.2286 13.726L28.848 18.3456C29.9656 17.9606 31.2551 18.2096 32.1477 19.1037C33.3953 20.3508 33.3953 22.372 32.1477 23.6198C30.8999 24.8679 28.8788 24.8679 27.6303 23.6198C26.6919 22.6805 26.4601 21.3024 26.9351 20.1463L22.6272 15.8383L22.6267 27.1752C22.939 27.3296 23.2242 27.5336 23.4713 27.7792C24.7188 29.0263 24.7188 31.0476 23.4713 32.2964C22.2234 33.5438 20.2013 33.5438 18.9553 32.2964C17.7077 31.0476 17.7077 29.0264 18.9553 27.7794C19.2542 27.4803 19.6095 27.2434 20.0006 27.0824V15.6398C19.6089 15.48 19.2534 15.2429 18.9553 14.9429C18.0101 13.999 17.7828 12.6121 18.2671 11.4515L13.5421 6.72586L1.06524 19.2021C0.0168262 20.251 0.0168262 21.9508 1.06524 22.9989L19.2618 41.1948C20.3094 42.2429 22.0087 42.2429 23.0576 41.1948L41.169 23.0834C42.2171 22.035 42.2173 20.3342 41.1692 19.2862Z" fill="#DE4C36"/>
</svg>
