<svg width="38" height="39" viewBox="0 0 38 39" fill="none" xmlns="http://www.w3.org/2000/svg">
<g id="Logo Javascript" clip-path="url(#clip0_4_707)">
<rect id="Rectangle 4" x="7.81433" y="14.4245" width="27.6105" height="23.9638" fill="white"/>
<path id="Vector" fill-rule="evenodd" clip-rule="evenodd" d="M28.7465 35.4476C25.4739 35.4476 23.3584 33.8872 22.327 31.8468L25.1964 30.1851C25.9522 31.4192 26.933 32.325 28.6715 32.325C30.1306 32.325 31.0627 31.5954 31.0627 30.5883C31.0627 29.073 29.041 28.4804 27.6138 27.869C25.0707 26.7869 23.3828 25.4272 23.3828 22.5559C23.3828 19.9134 25.397 17.8992 28.5459 17.8992C30.7851 17.8992 32.398 18.6794 33.5551 20.718L30.8114 22.4809C30.2075 21.3988 29.553 20.9712 28.5459 20.9712C27.5125 20.9712 26.858 21.6257 26.858 22.4809C26.858 23.5386 27.5125 23.9662 29.0241 24.6207C32.1917 25.9785 34.5885 27.0457 34.5885 30.5377C34.5885 33.7109 32.0961 35.4476 28.7465 35.4476ZM20.6297 30.1345C20.6297 33.7859 18.3811 35.7158 15.2585 35.7158C12.4378 35.7158 10.7481 34.6374 9.91726 32.762H9.8685L12.736 30.7571C13.2893 31.738 13.7881 32.4338 14.9959 32.4338C16.1549 32.4338 16.8788 31.8468 16.8788 30.0857V17.7585H20.6297V30.1345ZM0 38.3882H37.5085V0.879704H0V38.3882Z" fill="#FEDF00"/>
</g>
<defs>
<clipPath id="clip0_4_707">
<rect width="37.5085" height="37.5085" fill="white" transform="translate(0 0.879704)"/>
</clipPath>
</defs>
</svg>
