<svg width="42" height="41" viewBox="0 0 42 41" fill="none" xmlns="http://www.w3.org/2000/svg">
<g id="Logo CSS" clip-path="url(#clip0_4_722)">
<path id="Vector" d="M21.0995 40.8485L9.37271 37.593L6.7594 8.28229H35.4747L32.8586 37.5885L21.0995 40.8485Z" fill="#264DE4"/>
<path id="Vector_2" d="M30.6191 35.7223L32.8545 10.6788H21.1171V38.3566L30.6191 35.7223Z" fill="#2965F1"/>
<path id="Vector_3" d="M12.7504 21.5498L13.0725 25.1446H21.1171V21.5498H12.7504ZM12.1029 14.2738L12.4297 17.8686H21.1171V14.2738H12.1029ZM21.1171 30.886L21.1013 30.8901L17.0978 29.8091L16.8418 26.9421H13.2331L13.7367 32.5865L21.1005 34.6306L21.1171 34.6261V30.886Z" fill="#EBEBEB"/>
<path id="Vector_4" d="M13.5175 0.316849H17.8713V2.13762H15.3382V3.9584H17.8715V5.77906H13.5175V0.316849ZM18.7422 0.316849H23.0961V1.90012H20.5629V2.21675H23.0961V5.8583H18.7423V4.19568H21.2754V3.87904H18.7421L18.7422 0.316849ZM23.967 0.316849H28.3209V1.90012H25.7878V2.21675H28.3209V5.8583H23.967V4.19568H26.5002V3.87904H23.9671L23.967 0.316849Z" fill="white"/>
<path id="Vector_5" d="M29.4609 21.5498L30.1098 14.2738H21.1047V17.8686H26.1702L25.8431 21.5498H21.1047V25.1446H25.5314L25.114 29.8069L21.1046 30.889V34.6289L28.4743 32.5865L28.5283 31.9792L29.3732 22.5151L29.4609 21.5498Z" fill="white"/>
</g>
<defs>
<clipPath id="clip0_4_722">
<rect width="40.6343" height="40.6343" fill="white" transform="translate(0.799927 0.316849)"/>
</clipPath>
</defs>
</svg>
