<svg width="44" height="44" viewBox="0 0 44 44" fill="none" xmlns="http://www.w3.org/2000/svg">
<circle cx="22.3308" cy="21.9242" r="21.6195" fill="#D9D9D9"/>
<g clip-path="url(#clip0_4_738)">
<path d="M12.4362 16.2809H19.5041V16.8418H13.0841V21.0632H19.1213V21.624H13.0841V26.2587H19.5778V26.8196H12.4362V16.2809ZM20.1373 16.2809H20.8883L24.2161 20.9156L27.6175 16.2809L32.244 10.3938L24.6431 21.4026L28.5599 26.8196H27.7795L24.2161 21.8897L20.638 26.8196H19.8723L23.8185 21.4026L20.1373 16.2809ZM28.8397 16.8418V16.2809H36.8941V16.8418H33.1835V26.8196H32.5356V16.8418H28.8397ZM3.59399 16.2809H4.40386L15.5714 32.9657L10.9564 26.8196L4.27134 17.0779L4.24189 26.8196H3.59399V16.2809ZM36.8289 26.0894C36.6965 26.0894 36.5972 25.987 36.5972 25.8547C36.5972 25.7224 36.6965 25.62 36.8289 25.62C36.9628 25.62 37.0605 25.7224 37.0605 25.8547C37.0605 25.987 36.9628 26.0894 36.8289 26.0894ZM37.4655 25.4719H37.8122C37.8169 25.6593 37.954 25.7854 38.1557 25.7854C38.381 25.7854 38.5087 25.6499 38.5087 25.3962V23.7894H38.8617V25.3978C38.8617 25.8547 38.5969 26.1178 38.1588 26.1178C37.7476 26.1178 37.4655 25.8626 37.4655 25.4719ZM39.3234 25.4514H39.6732C39.7031 25.6672 39.9143 25.8043 40.2184 25.8043C40.5021 25.8043 40.7101 25.6578 40.7101 25.4561C40.7101 25.2828 40.5777 25.1788 40.2767 25.108L39.9836 25.0371C39.5724 24.941 39.3848 24.7425 39.3848 24.4085C39.3848 24.0036 39.7158 23.7342 40.2121 23.7342C40.6739 23.7342 41.0111 24.0036 41.0316 24.3864H40.688C40.6549 24.1769 40.4722 24.0461 40.2074 24.0461C39.9285 24.0461 39.7425 24.1801 39.7425 24.3849C39.7425 24.5471 39.8623 24.6401 40.1586 24.7094L40.4091 24.7708C40.8756 24.8795 41.0678 25.0686 41.0678 25.4104C41.0678 25.8452 40.7306 26.1178 40.1917 26.1178C39.6874 26.1178 39.3486 25.8578 39.3234 25.4514Z" fill="black"/>
</g>
<defs>
<clipPath id="clip0_4_738">
<rect width="37.4738" height="22.5804" fill="white" transform="translate(3.59399 10.3938)"/>
</clipPath>
</defs>
</svg>
