<svg width="38" height="39" viewBox="0 0 38 39" fill="none" xmlns="http://www.w3.org/2000/svg">
<g id="Logo Typescript" clip-path="url(#clip0_4_710)">
<path id="Vector" d="M0.0533447 19.634V0.879704H37.5619V38.3882H0.0533447" fill="#007ACC"/>
<path id="Vector_2" d="M8.2771 19.6996V21.2281H13.1532V35.1062H16.6134V21.2281H21.4895V19.7277C21.4895 18.8838 21.4895 18.1993 21.452 18.1805C21.452 18.1524 18.4794 18.143 14.8692 18.143L8.30523 18.1711V19.709L8.2771 19.6996ZM30.1915 18.1336C31.1479 18.3587 31.8794 18.79 32.5357 19.4746C32.8827 19.8496 33.3984 20.506 33.436 20.6748C33.436 20.7311 31.8137 21.8282 30.8291 22.4377C30.7916 22.4659 30.6416 22.3065 30.4915 22.0626C30.0039 21.3687 29.5069 21.0687 28.7286 21.0124C27.6034 20.9374 26.8532 21.5282 26.8532 22.5127C26.8532 22.8128 26.9095 22.9816 27.022 23.2254C27.2752 23.7412 27.744 24.0506 29.1975 24.6882C31.8793 25.8416 33.0421 26.6012 33.7454 27.6889C34.5425 28.908 34.7206 30.8209 34.1861 32.2556C33.586 33.8216 32.1232 34.8812 30.0321 35.2281C29.3757 35.3407 27.8753 35.3219 27.172 35.2C25.6717 34.9187 24.237 34.1685 23.3555 33.2027C23.0086 32.8276 22.3428 31.8242 22.3803 31.7586L22.7366 31.5336L24.1432 30.7177L25.2028 30.0989L25.4466 30.4271C25.7561 30.9147 26.45 31.5711 26.8532 31.7961C28.0722 32.4244 29.7039 32.34 30.5103 31.6086C30.8572 31.2898 31.0073 30.9522 31.0073 30.4833C31.0073 30.052 30.9416 29.855 30.726 29.5268C30.4259 29.1143 29.8258 28.7767 28.1379 28.0265C26.1968 27.2013 25.3716 26.6762 24.6027 25.8698C24.162 25.3822 23.7588 24.6226 23.5712 23.9943C23.4306 23.4505 23.3837 22.1189 23.5149 21.5844C23.9182 19.709 25.3341 18.3962 27.3596 18.0211C28.016 17.8898 29.5632 17.9461 30.2102 18.1149L30.1915 18.1336Z" fill="white"/>
</g>
<defs>
<clipPath id="clip0_4_710">
<rect width="37.5085" height="37.5085" fill="white" transform="translate(0.0533447 0.879704)"/>
</clipPath>
</defs>
</svg>
