<svg width="88" height="88" viewBox="0 0 88 88" fill="none" xmlns="http://www.w3.org/2000/svg">
<g clip-path="url(#clip0_3_14)">
<path d="M0.00670209 44.7679C-0.417401 20.4711 18.9353 0.430794 43.2321 0.00669131C67.5289 -0.417411 87.5692 18.9353 87.9933 43.2321C88.4174 67.5289 69.0647 87.5692 44.7679 87.9933C20.4711 88.4174 0.430805 69.0647 0.00670209 44.7679Z" fill="white"/>
<g clip-path="url(#clip1_3_14)">
<mask id="mask0_3_14" style="mask-type:luminance" maskUnits="userSpaceOnUse" x="12" y="24" width="64" height="39">
<path d="M12 24H76V62.2909H12V24Z" fill="white"/>
</mask>
<g mask="url(#mask0_3_14)">
<path fill-rule="evenodd" clip-rule="evenodd" d="M44 24C35.4667 24 30.1333 28.2545 28 36.7636C31.2 32.5091 34.9333 30.9136 39.2 31.9773C41.6344 32.5835 43.3742 34.3456 45.3001 36.2945C48.4373 39.47 52.0687 43.1455 60 43.1455C68.5333 43.1455 73.8667 38.8909 76 30.3818C72.8 34.6364 69.0667 36.2318 64.8 35.1682C62.3656 34.5619 60.6258 32.7998 58.6999 30.851C55.5627 27.6755 51.9313 24 44 24ZM28 43.1455C19.4667 43.1455 14.1333 47.4 12 55.9091C15.2 51.6545 18.9333 50.0591 23.2 51.1227C25.6344 51.7302 27.3742 53.4911 29.3001 55.4399C32.4373 58.6155 36.0687 62.2909 44 62.2909C52.5333 62.2909 57.8667 58.0364 60 49.5273C56.8 53.7818 53.0667 55.3773 48.8 54.3136C46.3656 53.7074 44.6258 51.9453 42.6999 49.9965C39.5627 46.8209 35.9313 43.1455 28 43.1455Z" fill="#38BDF8"/>
</g>
</g>
</g>
<defs>
<clipPath id="clip0_3_14">
<rect width="88" height="88" fill="white"/>
</clipPath>
<clipPath id="clip1_3_14">
<rect width="64" height="39" fill="white" transform="translate(12 24)"/>
</clipPath>
</defs>
</svg>
