<svg width="49" height="44" viewBox="0 0 49 44" fill="none" xmlns="http://www.w3.org/2000/svg">
<g id="Logo React">
<path id="Vector" d="M29.0155 21.747C29.0155 22.332 28.9 22.9113 28.6755 23.4518C28.4511 23.9922 28.1221 24.4833 27.7073 24.897C27.2926 25.3107 26.8002 25.6388 26.2583 25.8627C25.7164 26.0866 25.1356 26.2018 24.549 26.2018C23.9625 26.2018 23.3817 26.0866 22.8398 25.8627C22.2979 25.6388 21.8055 25.3107 21.3907 24.897C20.976 24.4833 20.647 23.9922 20.4225 23.4518C20.198 22.9113 20.0825 22.332 20.0825 21.747C20.0825 20.5655 20.5531 19.4324 21.3907 18.597C22.2284 17.7615 23.3644 17.2922 24.549 17.2922C25.7336 17.2922 26.8697 17.7615 27.7073 18.597C28.545 19.4324 29.0155 20.5655 29.0155 21.747Z" fill="#00A4FF"/>
<path id="Vector_2" d="M24.5493 38.1284C28.056 41.5291 31.5123 43.5405 34.2983 43.5405C35.2114 43.5405 36.0759 43.3487 36.7948 42.9185C39.2914 41.4807 40.2045 37.8882 39.3399 32.7629C39.1961 31.8522 39.0038 30.9434 38.7629 29.9843C39.7227 29.6975 40.5872 29.4088 41.4518 29.122C46.303 27.254 48.9918 24.6672 48.9918 21.8419C48.9918 18.9683 46.303 16.3815 41.4518 14.5619C40.5872 14.2267 39.7227 13.9399 38.7629 13.6996C39.0038 12.7424 39.1961 11.8317 39.3399 10.921C40.1559 5.70073 39.2447 2.05979 36.7463 0.622034C36.0255 0.191825 35.161 0 34.2497 0C31.5123 0 28.0056 2.01137 24.5007 5.41207C21.0425 2.01137 17.5843 0 14.8002 0C13.8871 0 13.0226 0.191825 12.3037 0.622034C9.80716 2.05979 8.89406 5.65231 9.75861 10.7776C9.90239 11.6883 10.0947 12.5971 10.3356 13.5562C9.37582 13.843 8.51127 14.1317 7.64673 14.4185C2.79556 16.2865 0.106689 18.8733 0.106689 21.6985C0.106689 24.5722 2.79556 27.159 7.64673 28.9786C8.51127 29.3138 9.37582 29.6006 10.3356 29.8409C10.1014 30.7579 9.90891 31.6851 9.75861 32.6195C8.94261 37.7448 9.85384 41.3857 12.3037 42.7751C13.0245 43.2071 13.889 43.3971 14.8002 43.3971C17.5862 43.4921 21.0444 41.4807 24.5493 38.1284ZM21.8585 31.6623C22.7231 31.7107 23.6362 31.7107 24.5474 31.7107C25.4586 31.7107 26.3717 31.7107 27.2363 31.6623C26.3896 32.7723 25.4923 33.843 24.5474 34.8711C23.6019 33.8435 22.7047 32.7727 21.8585 31.6623ZM15.9038 26.7288C16.3837 27.5427 16.8169 28.31 17.3453 29.0754C15.9275 28.894 14.5177 28.6541 13.1197 28.3565C13.5529 27.0641 14.0328 25.7213 14.6079 24.3804C14.9926 25.1458 15.4239 25.9615 15.9038 26.727V26.7288ZM13.1178 15.184C14.4623 14.8971 15.8552 14.6569 17.3435 14.4651C16.8636 15.2324 16.3837 15.9978 15.9019 16.8117C15.4202 17.6255 14.9888 18.3928 14.606 19.2067C14.0199 17.9 13.5227 16.5573 13.1178 15.184ZM15.76 21.747C16.3837 20.4545 17.0559 19.1601 17.8252 17.8676C18.546 16.6217 19.362 15.3776 20.178 14.1317C23.089 13.9387 26.0096 13.9387 28.9205 14.1317C29.7851 15.3776 30.5525 16.6217 31.2733 17.8676C32.0426 19.1601 32.7148 20.4545 33.3385 21.747C32.7072 23.0695 32.0182 24.3639 31.2733 25.6263C30.5525 26.8722 29.7365 28.1163 28.9205 29.3622C26.0096 29.5552 23.089 29.5552 20.178 29.3622C19.3425 28.1497 18.5576 26.9034 17.8252 25.6263C17.0807 24.3637 16.3917 23.0693 15.76 21.747ZM34.5392 19.1601L33.2433 16.7651C32.7634 15.9513 32.3302 15.184 31.8017 14.4185C33.29 14.6103 34.6829 14.8506 36.0274 15.1374C35.596 16.4783 35.1143 17.8174 34.5392 19.1601ZM34.5392 24.3338C35.1161 25.6747 35.596 27.0156 36.0274 28.31C34.6829 28.5968 33.29 28.837 31.8017 29.0289C32.2816 28.2616 32.7615 27.4961 33.2433 26.6823C33.6765 25.9634 34.1078 25.1495 34.5392 24.3357V24.3338ZM35.6427 40.9555C35.2581 41.1958 34.7782 41.2907 34.2497 41.2907C31.897 41.2907 28.9672 39.3744 26.086 36.5007C27.554 34.9136 28.9175 33.2333 30.1679 31.4704C32.3353 31.2939 34.4867 30.9578 36.6044 30.4647C36.8452 31.327 36.989 32.1893 37.1328 33.0516C37.805 37.1227 37.2747 40.0448 35.6427 40.9555ZM38.1411 15.711C43.5207 17.2437 46.738 19.5903 46.738 21.747C46.738 23.6149 44.529 25.4829 40.6395 26.9691C39.8702 27.2559 39.0075 27.5445 38.143 27.7829C37.4895 25.7226 36.7036 23.7065 35.7902 21.747C36.75 19.6872 37.566 17.6758 38.1411 15.711ZM34.2983 2.20319C34.8267 2.20319 35.258 2.29817 35.6913 2.53842C37.2766 3.44912 37.8517 6.32277 37.1795 10.4423C37.0357 11.2562 36.8434 12.1185 36.651 13.0292C34.5248 12.5812 32.3763 12.2455 30.2146 12.0235C28.9788 10.2497 27.6145 8.56843 26.1327 6.99322C29.0139 4.16613 31.9455 2.20319 34.2983 2.20319ZM27.2381 11.8317C26.3736 11.7833 25.4605 11.7833 24.5493 11.7833C23.638 11.7833 22.7249 11.7833 21.8604 11.8317C22.7249 10.6826 23.638 9.62848 24.5493 8.6228C25.4624 9.62848 26.3736 10.731 27.2381 11.8317ZM13.4539 2.53842C13.8386 2.29817 14.3185 2.20319 14.8469 2.20319C17.1997 2.20319 20.1294 4.11958 23.0106 6.99322C21.5422 8.58 20.1787 10.2603 18.9288 12.0235C16.7614 12.2 14.61 12.5361 12.4923 13.0292C12.2514 12.1669 12.1076 11.3046 11.9639 10.4423C11.2916 6.37119 11.8219 3.49754 13.4539 2.53842ZM10.9574 27.7829C5.57779 26.2502 2.36048 23.9036 2.36048 21.747C2.36048 19.879 4.56947 18.011 8.45899 16.5267C9.22831 16.2399 10.091 15.9513 10.9555 15.7129C11.609 17.7732 12.3949 19.7893 13.3083 21.7488C12.3485 23.8086 11.5307 25.8684 10.9555 27.7848L10.9574 27.7829ZM11.9657 33.0516C12.1095 32.2377 12.3018 31.3755 12.4942 30.4647C14.5108 30.8968 16.6731 31.2321 18.9306 31.4704C20.1664 33.2443 21.5307 34.9255 23.0125 36.5007C20.1313 39.3259 17.2015 41.2907 14.8488 41.2907C14.3204 41.2907 13.889 41.1958 13.4558 40.9555C11.8219 40.0448 11.2954 37.1227 11.9676 33.0516H11.9657Z" fill="#00A4FF"/>
</g>
</svg>
