<svg width="95" height="76" viewBox="0 0 95 76" fill="none" xmlns="http://www.w3.org/2000/svg">
<path d="M85.5 0H9.5C4.275 0 0.0475 4.275 0.0475 9.5L0 66.5C0 71.725 4.275 76 9.5 76H85.5C90.725 76 95 71.725 95 66.5V9.5C95 4.275 90.725 0 85.5 0ZM83.6 20.1875L50.0175 41.1825C48.4975 42.1325 46.5025 42.1325 44.9825 41.1825L11.4 20.1875C10.2125 19.4275 9.5 18.145 9.5 16.7675C9.5 13.585 12.9675 11.685 15.675 13.3475L47.5 33.25L79.325 13.3475C82.0325 11.685 85.5 13.585 85.5 16.7675C85.5 18.145 84.7875 19.4275 83.6 20.1875Z" fill="#00A4FF"/>
</svg>
