<svg width="97" height="96" viewBox="0 0 97 96" fill="none" xmlns="http://www.w3.org/2000/svg">
<path fill-rule="evenodd" clip-rule="evenodd" d="M48.5401 0C21.6987 0 0 21.9999 0 49.2168C0 70.9727 13.9031 89.3886 33.1904 95.9066C35.6018 96.3966 36.4851 94.8476 36.4851 93.5446C36.4851 92.4036 36.4056 88.4926 36.4056 84.4176C22.9029 87.3516 20.0911 78.5507 20.0911 78.5507C17.9211 72.8467 14.7059 71.3807 14.7059 71.3807C10.2865 68.3657 15.0278 68.3657 15.0278 68.3657C19.9301 68.6917 22.5025 73.4177 22.5025 73.4177C26.8414 80.9137 33.8332 78.7957 36.646 77.4917C37.0474 74.3137 38.3341 72.1137 39.7003 70.8917C28.9309 69.7507 17.6002 65.5137 17.6002 46.6088C17.6002 41.2308 19.5277 36.8308 22.582 33.4089C22.1001 32.1869 20.412 27.1339 23.0649 20.3709C23.0649 20.3709 27.1634 19.0669 36.4046 25.4229C40.3611 24.3456 44.4414 23.7975 48.5401 23.7929C52.6386 23.7929 56.8166 24.3639 60.6747 25.4229C69.9169 19.0669 74.0154 20.3709 74.0154 20.3709C76.6683 27.1339 74.9792 32.1869 74.4973 33.4089C77.632 36.8308 79.4801 41.2308 79.4801 46.6088C79.4801 65.5137 68.1493 69.6687 57.2995 70.8917C59.0681 72.4397 60.5942 75.3727 60.5942 80.0177C60.5942 86.6176 60.5147 91.9146 60.5147 93.5436C60.5147 94.8476 61.399 96.3966 63.8094 95.9076C83.0967 89.3876 96.9998 70.9727 96.9998 49.2168C97.0793 21.9999 75.3011 0 48.5401 0Z" fill="#00A4FF"/>
</svg>
