<svg width="96" height="96" viewBox="0 0 96 96" fill="none" xmlns="http://www.w3.org/2000/svg">
<path d="M48.0002 0C21.5335 0 0.000309752 21.5332 0.000309752 48C0.000309752 56.2643 2.13526 64.391 6.18394 71.5617L0.0775268 93.3496C-0.12282 94.0654 0.0712662 94.8334 0.58883 95.3656C0.987437 95.7767 1.53004 96 2.08726 96C2.25422 96 2.42326 95.9791 2.58813 95.9395L25.3275 90.3068C32.2708 94.0341 40.0906 96 48.0002 96C74.4669 96 96 74.4668 96 48C96 21.5332 74.4669 0 48.0002 0ZM72.1462 64.9377C71.1194 67.7802 66.1942 70.3743 63.8276 70.7228C61.7031 71.0337 59.0151 71.1673 56.0641 70.2407C54.2756 69.6772 51.98 68.9301 49.0395 67.6758C36.6785 62.4042 28.6061 50.1141 27.9884 49.3023C27.3727 48.4904 22.9568 42.7054 22.9568 36.7179C22.9568 30.7304 26.1394 27.7857 27.2705 26.567C28.4016 25.3482 29.7352 25.0435 30.5574 25.0435C31.3797 25.0435 32.1999 25.0539 32.9199 25.0873C33.6774 25.1249 34.6938 24.8014 35.6934 27.1763C36.7202 29.6139 39.1849 35.6014 39.4896 36.2129C39.7984 36.8223 40.003 37.5339 39.5939 38.3457C39.1849 39.1576 38.9804 39.6647 38.3626 40.3763C37.7449 41.088 37.0687 41.9624 36.5136 42.5092C35.8958 43.1165 35.2552 43.7739 35.9731 44.9927C36.691 46.2115 39.164 50.1955 42.8287 53.4219C47.5348 57.5666 51.5062 58.8522 52.7375 59.4616C53.9688 60.071 54.6888 59.9687 55.4067 59.1569C56.1247 58.343 58.4871 55.6028 59.3073 54.3861C60.1274 53.1694 60.9497 53.3697 62.0808 53.7767C63.2119 54.1816 69.2704 57.1242 70.5017 57.7336C71.733 58.343 72.5552 58.6477 72.8641 59.1548C73.173 59.6598 73.1729 62.0974 72.1462 64.9377Z" fill="#00A4FF"/>
</svg>
